<svg width="120" height="45" viewBox="0 0 83 37" fill="none" xmlns="http://www.w3.org/2000/svg">
<g clip-path="url(#clip0_422_220)">
<path d="M16.9073 33.3401V33.3432C16.9073 34.313 17.2935 35.2432 17.981 35.9289C18.6684 36.6147 19.6009 37 20.5731 37H20.6272C21.1031 37.0005 21.5744 36.906 22.0131 36.722C22.4519 36.538 22.8492 36.2682 23.1818 35.9285C23.5256 35.6012 23.7992 35.2077 23.9859 34.7717C24.1727 34.3358 24.2687 33.8666 24.2683 33.3925V33.3355V33.3385C24.2638 32.3634 23.8736 31.4294 23.1825 30.7397C22.4914 30.05 21.5553 29.6604 20.5777 29.6555H20.5221C19.5237 29.6555 18.6212 30.0702 17.9814 30.7378L17.9798 30.7393C17.3184 31.3868 16.9073 32.2887 16.9073 33.2846V33.3447V33.3416V33.3401ZM33.6631 33.3401V33.394C33.6631 34.39 34.0788 35.2903 34.748 35.9285L34.7495 35.9301C35.0819 36.2691 35.4788 36.5384 35.917 36.7221C36.3552 36.9059 36.8258 37.0003 37.3011 37H37.3583H37.3552H37.3583C38.3305 37 39.2629 36.6147 39.9504 35.9289C40.6379 35.2432 41.0241 34.313 41.0241 33.3432V33.2892C41.0241 32.2918 40.613 31.3883 39.95 30.7408C39.6219 30.3979 39.2274 30.125 38.7903 29.9387C38.3533 29.7524 37.883 29.6566 37.4077 29.657H37.3505H37.3536C36.3761 29.6615 35.4398 30.0508 34.7484 30.7402C34.057 31.4296 33.6664 32.3634 33.6615 33.3385V33.3401H33.6631ZM51 0C50.2346 0.811157 49.4235 1.5781 48.5705 2.29708L48.5273 2.33254C47.7345 2.98929 46.8489 3.59517 45.9093 4.11779L45.8196 4.16404C44.9712 4.64813 43.9697 5.12142 42.9296 5.51917L42.7766 5.57004C41.6218 5.99051 40.4359 6.3209 39.2298 6.55825L39.0675 6.586C37.6138 6.88406 36.1224 7.11839 34.5935 7.289C33.0645 7.45961 31.2002 7.59733 29.0005 7.70217C26.8008 7.807 24.5341 7.87792 22.2005 7.91492C19.8668 7.95192 17.0891 7.97042 13.8674 7.97042C11.7944 7.97042 9.97127 8.00742 8.398 8.08142C6.902 8.14308 5.50491 8.27567 4.131 8.47763L4.34891 8.45142C3.29336 8.59942 2.35527 8.81525 1.45118 9.102L1.57481 9.06808C0.956633 9.24229 0.421904 9.546 -0.017005 9.95146L-0.0139098 9.94992C-0.318364 10.2444 -0.517728 10.6468 -0.550183 11.0938V11.1C-0.546569 11.6122 -0.392936 12.1122 -0.108184 12.5384L-0.114368 12.5291C0.276632 13.1735 0.693907 13.7316 1.15754 14.2465L1.14827 14.2358C1.67785 14.838 2.34497 15.5153 3.14963 16.2677C3.9543 17.02 4.81976 17.7975 5.746 18.6002C6.67224 19.4029 7.70872 20.2878 8.85545 21.255C11.6146 23.5911 13.7473 25.4283 15.2536 26.7664C14.7081 25.843 14.1409 25.0459 13.5135 24.3028L13.5351 24.3306C12.8273 23.4683 12.1267 22.6836 11.4333 21.9765C10.7399 21.2693 10.0352 20.5365 9.31909 19.778C8.60303 19.0195 7.98485 18.3386 7.46454 17.7353C7.00091 17.2143 6.59754 16.6238 6.27763 15.9855L6.256 15.9393C5.98843 15.4601 5.88685 14.9063 5.967 14.3637L5.96545 14.3776C6.04355 14.1167 6.17267 13.8738 6.34534 13.6629C6.51802 13.452 6.73085 13.2773 6.97154 13.1489L6.98236 13.1443C7.77444 12.6904 8.64183 12.3823 9.54318 12.2347L9.588 12.2285C11.0675 11.9549 12.5638 11.7808 14.0667 11.7074L14.1517 11.7043C16.0475 11.5851 18.3141 11.5481 20.9517 11.5933C23.4574 11.6231 25.7993 11.5784 27.9774 11.4592C30.1554 11.34 32.0646 11.1689 33.7048 10.9458C35.3331 10.7346 36.9443 10.409 38.5266 9.9715L38.2794 10.0301C39.5738 9.68931 40.8477 9.27548 42.0951 8.79058L41.8478 8.87538C42.8282 8.49433 43.767 8.01444 44.6497 7.44317L44.5895 7.48017C45.3159 7.02851 46.0095 6.52621 46.665 5.97704L46.6372 6.00017C47.18 5.51915 47.681 4.9931 48.1347 4.42767L48.1548 4.403C48.5521 3.92922 48.9181 3.43022 49.2505 2.90913L49.2845 2.85054C49.5318 2.43943 49.8301 1.93376 50.1794 1.33354C50.5286 0.733319 50.8017 0.290347 50.9985 0.004625L51 0Z" fill="#009E7F"/>
<path d="M19.756 24V14.28H23.524V15.288H21.112V18.504H23.068V19.464H21.112V23.028H23.548V24H19.756ZM26.4307 24.096C25.8627 24.096 25.4307 23.984 25.1347 23.76C24.8467 23.528 24.6507 23.204 24.5467 22.788C24.4507 22.372 24.4027 21.888 24.4027 21.336V19.74C24.4027 19.156 24.4547 18.66 24.5587 18.252C24.6627 17.836 24.8587 17.52 25.1467 17.304C25.4427 17.08 25.8707 16.968 26.4307 16.968C26.9347 16.968 27.3227 17.052 27.5947 17.22C27.8747 17.38 28.0667 17.624 28.1707 17.952C28.2747 18.272 28.3267 18.672 28.3267 19.152V19.56H27.1627V19.14C27.1627 18.836 27.1427 18.596 27.1027 18.42C27.0627 18.244 26.9907 18.116 26.8867 18.036C26.7827 17.956 26.6347 17.916 26.4427 17.916C26.2347 17.916 26.0747 17.964 25.9627 18.06C25.8507 18.156 25.7747 18.32 25.7347 18.552C25.7027 18.776 25.6867 19.084 25.6867 19.476V21.66C25.6867 22.252 25.7427 22.648 25.8547 22.848C25.9667 23.048 26.1667 23.148 26.4547 23.148C26.6707 23.148 26.8267 23.1 26.9227 23.004C27.0267 22.9 27.0907 22.756 27.1147 22.572C27.1467 22.388 27.1627 22.18 27.1627 21.948V21.384H28.3267V21.864C28.3267 22.328 28.2707 22.728 28.1587 23.064C28.0547 23.4 27.8627 23.656 27.5827 23.832C27.3107 24.008 26.9267 24.096 26.4307 24.096ZM31.3763 24.096C30.8643 24.096 30.4603 23.992 30.1643 23.784C29.8683 23.576 29.6563 23.28 29.5283 22.896C29.4083 22.512 29.3483 22.06 29.3483 21.54V19.524C29.3483 19.004 29.4083 18.552 29.5283 18.168C29.6563 17.784 29.8683 17.488 30.1643 17.28C30.4603 17.072 30.8643 16.968 31.3763 16.968C31.8883 16.968 32.2883 17.072 32.5763 17.28C32.8723 17.488 33.0803 17.784 33.2003 18.168C33.3283 18.552 33.3923 19.004 33.3923 19.524V21.54C33.3923 22.06 33.3283 22.512 33.2003 22.896C33.0803 23.28 32.8723 23.576 32.5763 23.784C32.2883 23.992 31.8883 24.096 31.3763 24.096ZM31.3763 23.148C31.6243 23.148 31.7963 23.076 31.8923 22.932C31.9963 22.788 32.0563 22.6 32.0723 22.368C32.0963 22.128 32.1083 21.88 32.1083 21.624V19.452C32.1083 19.188 32.0963 18.94 32.0723 18.708C32.0563 18.476 31.9963 18.288 31.8923 18.144C31.7963 17.992 31.6243 17.916 31.3763 17.916C31.1283 17.916 30.9523 17.992 30.8483 18.144C30.7443 18.288 30.6803 18.476 30.6563 18.708C30.6403 18.94 30.6323 19.188 30.6323 19.452V21.624C30.6323 21.88 30.6403 22.128 30.6563 22.368C30.6803 22.6 30.7443 22.788 30.8483 22.932C30.9523 23.076 31.1283 23.148 31.3763 23.148ZM34.566 24V17.064H35.754V17.724C35.986 17.46 36.242 17.264 36.522 17.136C36.802 17.008 37.09 16.944 37.386 16.944C37.642 16.944 37.87 17.008 38.07 17.136C38.278 17.264 38.426 17.492 38.514 17.82C38.762 17.516 39.03 17.296 39.318 17.16C39.614 17.016 39.922 16.944 40.242 16.944C40.466 16.944 40.67 17 40.854 17.112C41.038 17.216 41.186 17.388 41.298 17.628C41.41 17.86 41.466 18.168 41.466 18.552V24H40.29V18.636C40.29 18.3 40.234 18.076 40.122 17.964C40.018 17.844 39.874 17.784 39.69 17.784C39.514 17.784 39.33 17.836 39.138 17.94C38.946 18.036 38.77 18.172 38.61 18.348C38.61 18.38 38.61 18.412 38.61 18.444C38.61 18.476 38.61 18.512 38.61 18.552V24H37.434V18.636C37.434 18.3 37.378 18.076 37.266 17.964C37.162 17.844 37.018 17.784 36.834 17.784C36.658 17.784 36.474 17.836 36.282 17.94C36.098 18.036 35.922 18.172 35.754 18.348V24H34.566ZM44.3302 24.096C43.7622 24.096 43.3062 23.92 42.9622 23.568C42.6182 23.208 42.4222 22.736 42.3742 22.152L43.4422 21.828C43.5062 22.268 43.6142 22.6 43.7662 22.824C43.9182 23.04 44.1422 23.148 44.4382 23.148C44.6702 23.148 44.8462 23.084 44.9662 22.956C45.0862 22.82 45.1462 22.64 45.1462 22.416C45.1462 22.216 45.1022 22.036 45.0142 21.876C44.9262 21.716 44.7822 21.552 44.5822 21.384L43.3942 20.364C43.1542 20.156 42.9502 19.924 42.7822 19.668C42.6222 19.412 42.5422 19.08 42.5422 18.672C42.5422 18.304 42.6142 17.996 42.7582 17.748C42.9102 17.492 43.1182 17.3 43.3822 17.172C43.6542 17.036 43.9702 16.968 44.3302 16.968C44.8822 16.968 45.3022 17.148 45.5902 17.508C45.8862 17.86 46.0542 18.288 46.0942 18.792L45.2302 19.116C45.1982 18.876 45.1502 18.668 45.0862 18.492C45.0222 18.308 44.9342 18.168 44.8222 18.072C44.7102 17.968 44.5622 17.916 44.3782 17.916C44.1702 17.916 44.0022 17.988 43.8742 18.132C43.7542 18.268 43.6942 18.432 43.6942 18.624C43.6942 18.744 43.7182 18.864 43.7662 18.984C43.8222 19.096 43.9142 19.208 44.0422 19.32L45.2662 20.448C45.4342 20.6 45.5902 20.764 45.7342 20.94C45.8862 21.116 46.0102 21.316 46.1062 21.54C46.2022 21.764 46.2502 22.024 46.2502 22.32C46.2502 22.712 46.1702 23.04 46.0102 23.304C45.8502 23.568 45.6262 23.768 45.3382 23.904C45.0502 24.032 44.7142 24.096 44.3302 24.096ZM50.0607 24V14.28H53.8167V15.252H51.4167V18.492H53.2767V19.452H51.4167V24H50.0607ZM56.5482 24.096C56.0362 24.096 55.6322 23.992 55.3362 23.784C55.0402 23.576 54.8282 23.28 54.7002 22.896C54.5802 22.512 54.5202 22.06 54.5202 21.54V19.524C54.5202 19.004 54.5802 18.552 54.7002 18.168C54.8282 17.784 55.0402 17.488 55.3362 17.28C55.6322 17.072 56.0362 16.968 56.5482 16.968C57.0602 16.968 57.4602 17.072 57.7482 17.28C58.0442 17.488 58.2522 17.784 58.3722 18.168C58.5002 18.552 58.5642 19.004 58.5642 19.524V21.54C58.5642 22.06 58.5002 22.512 58.3722 22.896C58.2522 23.28 58.0442 23.576 57.7482 23.784C57.4602 23.992 57.0602 24.096 56.5482 24.096ZM56.5482 23.148C56.7962 23.148 56.9682 23.076 57.0642 22.932C57.1682 22.788 57.2282 22.6 57.2442 22.368C57.2682 22.128 57.2802 21.88 57.2802 21.624V19.452C57.2802 19.188 57.2682 18.94 57.2442 18.708C57.2282 18.476 57.1682 18.288 57.0642 18.144C56.9682 17.992 56.7962 17.916 56.5482 17.916C56.3002 17.916 56.1242 17.992 56.0202 18.144C55.9162 18.288 55.8522 18.476 55.8282 18.708C55.8122 18.94 55.8042 19.188 55.8042 19.452V21.624C55.8042 21.88 55.8122 22.128 55.8282 22.368C55.8522 22.6 55.9162 22.788 56.0202 22.932C56.1242 23.076 56.3002 23.148 56.5482 23.148ZM59.7738 24V17.064H61.0578V18.048C61.3138 17.624 61.5698 17.34 61.8258 17.196C62.0818 17.052 62.3378 16.98 62.5938 16.98C62.6258 16.98 62.6538 16.98 62.6778 16.98C62.7098 16.98 62.7498 16.984 62.7978 16.992V18.408C62.7018 18.368 62.5898 18.336 62.4618 18.312C62.3418 18.28 62.2178 18.264 62.0898 18.264C61.8898 18.264 61.7058 18.312 61.5378 18.408C61.3778 18.496 61.2178 18.672 61.0578 18.936V24H59.7738ZM67.9315 24V20.568L65.8315 14.28H67.0915L68.5795 18.972L70.0435 14.28H71.3155L69.2275 20.568V24H67.9315ZM73.7865 24.096C73.2745 24.096 72.8705 23.992 72.5745 23.784C72.2785 23.576 72.0665 23.28 71.9385 22.896C71.8185 22.512 71.7585 22.06 71.7585 21.54V19.524C71.7585 19.004 71.8185 18.552 71.9385 18.168C72.0665 17.784 72.2785 17.488 72.5745 17.28C72.8705 17.072 73.2745 16.968 73.7865 16.968C74.2985 16.968 74.6985 17.072 74.9865 17.28C75.2825 17.488 75.4905 17.784 75.6105 18.168C75.7385 18.552 75.8025 19.004 75.8025 19.524V21.54C75.8025 22.06 75.7385 22.512 75.6105 22.896C75.4905 23.28 75.2825 23.576 74.9865 23.784C74.6985 23.992 74.2985 24.096 73.7865 24.096ZM73.7865 23.148C74.0345 23.148 74.2065 23.076 74.3025 22.932C74.4065 22.788 74.4665 22.6 74.4825 22.368C74.5065 22.128 74.5185 21.88 74.5185 21.624V19.452C74.5185 19.188 74.5065 18.94 74.4825 18.708C74.4665 18.476 74.4065 18.288 74.3025 18.144C74.2065 17.992 74.0345 17.916 73.7865 17.916C73.5385 17.916 73.3625 17.992 73.2585 18.144C73.1545 18.288 73.0905 18.476 73.0665 18.708C73.0505 18.94 73.0425 19.188 73.0425 19.452V21.624C73.0425 21.88 73.0505 22.128 73.0665 22.368C73.0905 22.6 73.1545 22.788 73.2585 22.932C73.3625 23.076 73.5385 23.148 73.7865 23.148ZM77.9721 24.096C77.7001 24.096 77.4881 24.024 77.3361 23.88C77.1841 23.736 77.0761 23.556 77.0121 23.34C76.9561 23.124 76.9281 22.904 76.9281 22.68V17.064H78.2121V22.296C78.2121 22.544 78.2481 22.74 78.3201 22.884C78.3921 23.02 78.5401 23.088 78.7641 23.088C78.9081 23.088 79.0561 23.048 79.2081 22.968C79.3681 22.88 79.5201 22.776 79.6641 22.656V17.064H80.9481V24H79.6641V23.316C79.4401 23.532 79.1841 23.716 78.8961 23.868C78.6161 24.02 78.3081 24.096 77.9721 24.096Z" fill="black"/>
</g>
<defs>
<clipPath id="clip0_422_220">
<rect width="120" height="45" fill="white" transform="matrix(-1 0 0 1 83 0)"/>
</clipPath>
</defs>
</svg>
